<?xml version="1.0" encoding="utf-8"?>
<!-- Generator: Adobe Illustrator 23.0.2, SVG Export Plug-In . SVG Version: 6.00 Build 0)  -->
<svg version="1.1" id="Lager_1" xmlns="http://www.w3.org/2000/svg" xmlns:xlink="http://www.w3.org/1999/xlink" x="0px" y="0px"
	 viewBox="0 0 455 138" style="enable-background:new 0 0 455 138;" xml:space="preserve">
<style type="text/css">
	.st0{fill:#FFFFFF;}
	.st1{fill:#FF8155;}
</style>
<g>
	<path class="st0" d="M193.2,40.3c6.7,0,12.4,2.3,17,6.8c4.6,4.5,6.9,10.1,6.9,16.7s-2.3,12.2-6.9,16.7c-4.6,4.5-10.3,6.8-17,6.8
		h-12.3v23h-13.8v-70H193.2z M193.2,74.4c2.9,0,5.4-1,7.3-3.1c1.9-2,2.9-4.5,2.9-7.5c0-3.1-1-5.6-2.9-7.6c-1.9-2-4.4-3-7.3-3h-12.3
		v21.2H193.2z"/>
	<path class="st0" d="M264.8,104c-5.1,5.1-11.4,7.6-18.8,7.6s-13.7-2.5-18.8-7.6s-7.7-11.4-7.7-18.8s2.6-13.6,7.7-18.8
		s11.3-7.6,18.8-7.6s13.7,2.5,18.8,7.6c5.1,5.1,7.7,11.4,7.7,18.8S269.9,98.9,264.8,104z M236.4,95.2c2.6,2.6,5.8,3.9,9.7,3.9
		c3.9,0,7.1-1.3,9.7-3.9s3.9-5.9,3.9-9.9s-1.3-7.3-3.9-9.9s-5.8-3.9-9.7-3.9c-3.9,0-7.1,1.3-9.7,3.9s-3.8,5.9-3.8,9.9
		S233.8,92.6,236.4,95.2z"/>
	<path class="st0" d="M309.4,58.9c5.5,0,10,1.8,13.5,5.5c3.6,3.7,5.4,8.7,5.4,15.2v30.7h-12.9V81.2c0-3.3-0.9-5.9-2.7-7.6
		c-1.8-1.8-4.2-2.6-7.2-2.6c-3.3,0-6,1-8,3.1c-2,2.1-3,5.2-3,9.3v27h-12.9v-70h12.9v25.6C297.6,61.2,302.6,58.9,309.4,58.9z"/>
	<path class="st0" d="M377.3,60.3h12.9v50h-12.9v-5.9c-3.9,4.9-9.3,7.3-16.3,7.3c-6.7,0-12.4-2.5-17.1-7.6
		c-4.8-5.1-7.2-11.4-7.2-18.8s2.4-13.6,7.2-18.8c4.8-5.1,10.5-7.6,17.1-7.6c7,0,12.4,2.4,16.3,7.3V60.3z M353.5,95.4
		c2.6,2.6,5.9,4,9.9,4s7.3-1.3,10-4c2.6-2.6,4-6,4-10.1c0-4.1-1.3-7.5-4-10.1c-2.6-2.6-6-4-10-4s-7.3,1.3-9.9,4
		c-2.6,2.6-3.9,6-3.9,10.1C349.6,89.4,350.9,92.8,353.5,95.4z"/>
	<path class="st0" d="M430.5,72.7h-11.3v20.8c0,1.7,0.4,3,1.3,3.8c0.9,0.8,2.1,1.3,3.8,1.4c1.7,0.1,3.7,0.1,6.2-0.1v11.7
		c-8.9,1-15.1,0.2-18.8-2.5c-3.6-2.7-5.5-7.4-5.5-14.3V72.7h-8.7V60.3h8.7V50.2l12.9-3.9v14h11.3V72.7z"/>
</g>
<circle class="st1" cx="447.5" cy="104.5" r="7.5"/>
<g>
	<path class="st1" d="M0,137.6c0-0.1,0-0.1,0-0.1c0,0,0,0,0,0c0,0,0,0,0,0c0-28.3,0-56.7,0-85c8.1-28.3,32.1-49,60.4-52.2
		c33.1-3.7,64.1,17.5,74.1,46.7c10.5,30.6-6.2,57.3-8.2,60.4C112.3,129,91,135.9,85.1,137.6c-11,0-22,0-33,0c0-11,0-22,0-33
		c4.6,1.1,12.6,2.3,22,0c5-1.2,20.3-4.9,27.5-19.2c8.3-16.7-1.5-33.7-2.7-35.7c-6.2-10.3-15.5-14.9-19.2-16.5c-3.4-1-11.9-3.1-22,0
		c-2.9,0.9-12.6,4-19.2,13.7c-3.7,5.3-5,10.6-5.5,13.7c0,25.6,0,51.3,0,76.9"/>
	<path class="st1" d="M52.2,85.4L52.2,85.4c0-7.3,0-14.6,0-22c2.9-6.6,9.4-11,16.5-11c6.8,0,13.8,3.9,16.5,11
		c2.6,7,0.1,15.2-5.5,19.2c-3.1,2.2-6.4,2.7-8.2,2.7"/>
</g>
</svg>
